<svg width="117" height="20" viewBox="0 0 117 20" fill="none" xmlns="http://www.w3.org/2000/svg">
<path d="M12.8906 19L11.1797 14.2422H4.62891L2.95312 19H0L6.41016 1.79688H9.45703L15.8672 19H12.8906ZM10.4414 11.8281L8.83594 7.16406C8.71875 6.85156 8.55469 6.35938 8.34375 5.6875C8.14062 5.01562 8 4.52344 7.92188 4.21094C7.71094 5.17188 7.40234 6.22266 6.99609 7.36328L5.44922 11.8281H10.4414ZM29.2383 19H26.4727V11.0312C26.4727 10.0312 26.2695 9.28516 25.8633 8.79297C25.4648 8.30078 24.8281 8.05469 23.9531 8.05469C22.7891 8.05469 21.9375 8.39844 21.3984 9.08594C20.8594 9.77344 20.5898 10.9258 20.5898 12.543V19H17.8359V6.03906H19.9922L20.3789 7.73828H20.5195C20.9102 7.12109 21.4648 6.64453 22.1836 6.30859C22.9023 5.97266 23.6992 5.80469 24.5742 5.80469C27.6836 5.80469 29.2383 7.38672 29.2383 10.5508V19ZM41.7773 15.3086C41.7773 16.5742 41.3164 17.5469 40.3945 18.2266C39.4727 18.8984 38.1523 19.2344 36.4336 19.2344C34.707 19.2344 33.3203 18.9727 32.2734 18.4492V16.0703C33.7969 16.7734 35.2148 17.125 36.5273 17.125C38.2227 17.125 39.0703 16.6133 39.0703 15.5898C39.0703 15.2617 38.9766 14.9883 38.7891 14.7695C38.6016 14.5508 38.293 14.3242 37.8633 14.0898C37.4336 13.8555 36.8359 13.5898 36.0703 13.293C34.5781 12.7148 33.5664 12.1367 33.0352 11.5586C32.5117 10.9805 32.25 10.2305 32.25 9.30859C32.25 8.19922 32.6953 7.33984 33.5859 6.73047C34.4844 6.11328 35.7031 5.80469 37.2422 5.80469C38.7656 5.80469 40.207 6.11328 41.5664 6.73047L40.6758 8.80469C39.2773 8.22656 38.1016 7.9375 37.1484 7.9375C35.6953 7.9375 34.9688 8.35156 34.9688 9.17969C34.9688 9.58594 35.1562 9.92969 35.5312 10.2109C35.9141 10.4922 36.7422 10.8789 38.0156 11.3711C39.0859 11.7852 39.8633 12.1641 40.3477 12.5078C40.832 12.8516 41.1914 13.25 41.4258 13.7031C41.6602 14.1484 41.7773 14.6836 41.7773 15.3086ZM56.2617 12.4961C56.2617 14.6133 55.7188 16.2656 54.6328 17.4531C53.5469 18.6406 52.0352 19.2344 50.0977 19.2344C48.8867 19.2344 47.8164 18.9609 46.8867 18.4141C45.957 17.8672 45.2422 17.082 44.7422 16.0586C44.2422 15.0352 43.9922 13.8477 43.9922 12.4961C43.9922 10.3945 44.5312 8.75391 45.6094 7.57422C46.6875 6.39453 48.207 5.80469 50.168 5.80469C52.043 5.80469 53.5273 6.41016 54.6211 7.62109C55.7148 8.82422 56.2617 10.4492 56.2617 12.4961ZM46.8281 12.4961C46.8281 15.4883 47.9336 16.9844 50.1445 16.9844C52.332 16.9844 53.4258 15.4883 53.4258 12.4961C53.4258 9.53516 52.3242 8.05469 50.1211 8.05469C48.9648 8.05469 48.125 8.4375 47.6016 9.20312C47.0859 9.96875 46.8281 11.0664 46.8281 12.4961ZM66.0117 5.80469C66.5664 5.80469 67.0234 5.84375 67.3828 5.92188L67.1133 8.48828C66.7227 8.39453 66.3164 8.34766 65.8945 8.34766C64.793 8.34766 63.8984 8.70703 63.2109 9.42578C62.5312 10.1445 62.1914 11.0781 62.1914 12.2266V19H59.4375V6.03906H61.5938L61.957 8.32422H62.0977C62.5273 7.55078 63.0859 6.9375 63.7734 6.48438C64.4688 6.03125 65.2148 5.80469 66.0117 5.80469ZM77.4961 19L72.5273 4.69141H72.4336C72.5664 6.81641 72.6328 8.80859 72.6328 10.668V19H70.0898V1.86719H74.0391L78.7969 15.4961H78.8672L83.7656 1.86719H87.7266V19H85.0312V10.5273C85.0312 9.67578 85.0508 8.56641 85.0898 7.19922C85.1367 5.83203 85.1758 5.00391 85.207 4.71484H85.1133L79.9688 19H77.4961ZM97.6055 19.2344C95.5898 19.2344 94.0117 18.6484 92.8711 17.4766C91.7383 16.2969 91.1719 14.6758 91.1719 12.6133C91.1719 10.4961 91.6992 8.83203 92.7539 7.62109C93.8086 6.41016 95.2578 5.80469 97.1016 5.80469C98.8125 5.80469 100.164 6.32422 101.156 7.36328C102.148 8.40234 102.645 9.83203 102.645 11.6523V13.1406H94.0078C94.0469 14.3984 94.3867 15.3672 95.0273 16.0469C95.668 16.7188 96.5703 17.0547 97.7344 17.0547C98.5 17.0547 99.2109 16.9844 99.8672 16.8438C100.531 16.6953 101.242 16.4531 102 16.1172V18.3555C101.328 18.6758 100.648 18.9023 99.9609 19.0352C99.2734 19.168 98.4883 19.2344 97.6055 19.2344ZM97.1016 7.89062C96.2266 7.89062 95.5234 8.16797 94.9922 8.72266C94.4688 9.27734 94.1562 10.0859 94.0547 11.1484H99.9375C99.9219 10.0781 99.6641 9.26953 99.1641 8.72266C98.6641 8.16797 97.9766 7.89062 97.1016 7.89062ZM110.145 19.2344C108.527 19.2344 107.266 18.6484 106.359 17.4766C105.453 16.3047 105 14.6602 105 12.543C105 10.418 105.457 8.76562 106.371 7.58594C107.293 6.39844 108.566 5.80469 110.191 5.80469C111.895 5.80469 113.191 6.43359 114.082 7.69141H114.223C114.09 6.76172 114.023 6.02734 114.023 5.48828V0.765625H116.789V19H114.633L114.152 17.3008H114.023C113.141 18.5898 111.848 19.2344 110.145 19.2344ZM110.883 17.0078C112.016 17.0078 112.84 16.6914 113.355 16.0586C113.871 15.418 114.137 14.3828 114.152 12.9531V12.5664C114.152 10.9336 113.887 9.77344 113.355 9.08594C112.824 8.39844 111.992 8.05469 110.859 8.05469C109.891 8.05469 109.145 8.44922 108.621 9.23828C108.098 10.0195 107.836 11.1367 107.836 12.5898C107.836 14.0273 108.09 15.125 108.598 15.8828C109.105 16.6328 109.867 17.0078 110.883 17.0078Z" fill="#222222"/>
</svg>
